<?xml version="1.0" encoding="UTF-8" standalone="no"?>
<!-- Created with Inkscape (http://www.inkscape.org/) -->

<svg
   xmlns:dc="http://purl.org/dc/elements/1.1/"
   xmlns:cc="http://creativecommons.org/ns#"
   xmlns:rdf="http://www.w3.org/1999/02/22-rdf-syntax-ns#"
   xmlns:svg="http://www.w3.org/2000/svg"
   xmlns="http://www.w3.org/2000/svg"
   xmlns:sodipodi="http://sodipodi.sourceforge.net/DTD/sodipodi-0.dtd"
   xmlns:inkscape="http://www.inkscape.org/namespaces/inkscape"
   width="1000"
   height="1000"
   id="svg6445"
   version="1.1"
   inkscape:version="0.48.1 r9760"
   sodipodi:docname="warning.svg">
  <defs
     id="defs6447" />
  <sodipodi:namedview
     id="base"
     pagecolor="#ffffff"
     bordercolor="#666666"
     borderopacity="1.0"
     inkscape:pageopacity="0.0"
     inkscape:pageshadow="2"
     inkscape:zoom="0.5"
     inkscape:cx="500"
     inkscape:cy="500.00002"
     inkscape:document-units="px"
     inkscape:current-layer="layer1"
     showgrid="true"
     showguides="true"
     inkscape:guide-bbox="true"
     inkscape:window-width="1372"
     inkscape:window-height="778"
     inkscape:window-x="768"
     inkscape:window-y="292"
     inkscape:window-maximized="0">
    <sodipodi:guide
       orientation="0,1"
       position="0,200"
       id="guide6453" />
    <inkscape:grid
       type="xygrid"
       id="grid7357"
       empspacing="5"
       visible="true"
       enabled="true"
       snapvisiblegridlinesonly="true"
       spacingx="64px"
       spacingy="64px"
       originy="20px"
       originx="20px" />
  </sodipodi:namedview>
  <metadata
     id="metadata6450">
    <rdf:RDF>
      <cc:Work
         rdf:about="">
        <dc:format>image/svg+xml</dc:format>
        <dc:type
           rdf:resource="http://purl.org/dc/dcmitype/StillImage" />
        <dc:title></dc:title>
      </cc:Work>
    </rdf:RDF>
  </metadata>
  <g
     inkscape:label="Layer 1"
     inkscape:groupmode="layer"
     id="layer1"
     transform="translate(0,-52.362183)">
    <path
       id="path2099"
       d="m 340.00253,296.37065 c 0,-17.67655 14.32939,-31.99954 31.99954,-31.99954 17.67015,0 31.99954,14.32299 31.99954,31.99954 l 0,31.99954 -31.99954,0 c -17.67015,0 -31.99954,-14.32939 -31.99954,-31.99954 z m 383.9945,0 c 0,-17.67655 -14.32939,-31.99954 -31.99954,-31.99954 -17.67015,0 -31.99954,14.32299 -31.99954,31.99954 l 0,31.99954 31.99954,0 c 17.67015,0 31.99954,-14.32939 31.99954,-31.99954 z m -383.9945,447.99359 c 0,17.67015 14.32939,31.99954 31.99954,31.99954 17.67015,0 31.99954,-14.32939 31.99954,-31.99954 l 0,-31.99954 -31.99954,0 c -17.67015,0 -31.99954,14.32299 -31.99954,31.99954 z m 383.9945,0 c 0,17.67015 -14.32939,31.99954 -31.99954,31.99954 -17.67015,0 -31.99954,-14.32939 -31.99954,-31.99954 l 0,-31.99954 31.99954,0 c 17.67015,0 31.99954,14.32299 31.99954,31.99954 z M 595.99886,232.37157 c 0,17.67014 -14.32939,31.99954 -31.99954,31.99954 -17.67015,0 -31.99954,-14.3294 -31.99954,-31.99954 0,-17.67655 14.32939,-31.99955 31.99954,-31.99955 17.67015,0 31.99954,14.323 31.99954,31.99955 z m -63.99908,0 c 0,17.67014 -14.32939,31.99954 -31.99954,31.99954 -17.67015,0 -31.99954,-14.3294 -31.99954,-31.99954 0,-17.67655 14.32939,-31.99955 31.99954,-31.99955 17.67015,0 31.99954,14.323 31.99954,31.99955 z m -90.8659,287.99587 c -1.34398,-57.24078 58.14317,-102.34733 113.57278,-88.01154 55.13521,14.259 84.36359,81.24044 57.19598,131.31972 -27.09722,49.93849 -99.82577,63.1351 -141.00279,23.94846 -18.32293,-17.43975 -29.18358,-41.9514 -29.76597,-67.25664 z m 282.86315,0 C 725.34101,426.61519 649.4125,341.81 556.45383,329.91257 464.88394,318.18794 372.50766,379.08307 347.28562,467.805 c -24.84444,87.38435 19.65412,186.23733 101.47695,225.62237 81.94443,39.44903 188.10611,12.90861 239.81097,-61.91912 22.48288,-32.53713 34.8475,-71.60217 35.42349,-111.14081 z M 276.00344,904.36195 c -39.51303,0 -63.99908,-23.78206 -63.99908,-63.99909 l 0.63999,-575.99175 c 2.30397,-37.95146 24.98524,-63.99909 63.35909,-63.99909 10.97585,0.76799 113.88637,0 127.99817,0 47.22493,0 48.42171,63.99909 0,63.99909 -18.79653,0 -109.21443,0 -128.00457,0 0,191.99725 0,383.9945 0,575.99175 170.65996,0 341.32632,0 511.99268,0 0,-191.99725 0,-383.9945 0,-575.99175 l -127.99177,0 c -45.90654,0 -45.66975,-63.99909 0,-63.99909 14.45099,0.95999 113.20158,0 127.99817,0 43.69217,0 63.99908,32.43474 63.99908,63.99909 l 0,575.99175 c 0,37.95146 -28.65239,63.99909 -63.99908,63.99909 z"
       inkscape:connector-curvature="0" />
  </g>
</svg>
