<?xml version="1.0" encoding="UTF-8" standalone="no"?>
<!-- Created with Inkscape (http://www.inkscape.org/) -->

<svg
   xmlns:dc="http://purl.org/dc/elements/1.1/"
   xmlns:cc="http://creativecommons.org/ns#"
   xmlns:rdf="http://www.w3.org/1999/02/22-rdf-syntax-ns#"
   xmlns:svg="http://www.w3.org/2000/svg"
   xmlns="http://www.w3.org/2000/svg"
   xmlns:sodipodi="http://sodipodi.sourceforge.net/DTD/sodipodi-0.dtd"
   xmlns:inkscape="http://www.inkscape.org/namespaces/inkscape"
   width="1000"
   height="1000"
   id="svg6445"
   version="1.1"
   inkscape:version="0.48.1 r9760"
   sodipodi:docname="file-xml.svg">
  <defs
     id="defs6447" />
  <sodipodi:namedview
     id="base"
     pagecolor="#ffffff"
     bordercolor="#666666"
     borderopacity="1.0"
     inkscape:pageopacity="0.0"
     inkscape:pageshadow="2"
     inkscape:zoom="0.5"
     inkscape:cx="500"
     inkscape:cy="500.00002"
     inkscape:document-units="px"
     inkscape:current-layer="layer1"
     showgrid="true"
     showguides="true"
     inkscape:guide-bbox="true"
     inkscape:window-width="1372"
     inkscape:window-height="778"
     inkscape:window-x="768"
     inkscape:window-y="292"
     inkscape:window-maximized="0">
    <sodipodi:guide
       orientation="0,1"
       position="0,200"
       id="guide6453" />
    <inkscape:grid
       type="xygrid"
       id="grid7357"
       empspacing="5"
       visible="true"
       enabled="true"
       snapvisiblegridlinesonly="true"
       spacingx="64px"
       spacingy="64px"
       originy="20px"
       originx="20px" />
  </sodipodi:namedview>
  <metadata
     id="metadata6450">
    <rdf:RDF>
      <cc:Work
         rdf:about="">
        <dc:format>image/svg+xml</dc:format>
        <dc:type
           rdf:resource="http://purl.org/dc/dcmitype/StillImage" />
        <dc:title></dc:title>
      </cc:Work>
    </rdf:RDF>
  </metadata>
  <g
     inkscape:label="Layer 1"
     inkscape:groupmode="layer"
     id="layer1"
     transform="translate(0,-52.362183)">
    <path
       id="path13813"
       d="m 276.00027,200.36195 c -70.912,0 -128,57.08801 -128,128 l 0,256 c 0,70.912 57.088,128 128,128 l 64,0 0,64 c 0,70.912 57.08799,128 128,128 l 255.99999,0 c 70.912,0 128,-57.088 128,-128 l 0,-256 c 0,-70.912 -57.088,-127.99999 -128,-127.99999 l -64,0 0,-64.00001 c 0,-70.91199 -57.08799,-128 -128,-128 l -255.99999,0 z m 0,64.00001 255.99999,0 c 35.456,0 64.00001,28.54399 64.00001,63.99999 l 0,64.00001 -128,0 63.99999,63.99999 64.00001,0 0,64 63.99999,64 0,-128 64,0 c 35.45601,0 64,28.544 64,64 l 0,256 c 0,35.456 -28.54399,63.99999 -64,63.99999 l -255.99999,0 c -35.456,0 -64.00001,-28.54399 -64.00001,-63.99999 l 0,-64 128,0 -63.99999,-64 -64.00001,0 0,-64 -63.99999,-64 0,128 -64,0 c -37.4144,0 -64,-28.544 -64,-64 l 0,-256 c 0,-35.456 28.54399,-63.99999 64,-63.99999 z"
       inkscape:connector-curvature="0" />
  </g>
</svg>
