<?xml version="1.0" encoding="UTF-8" standalone="no"?>
<!-- Created with Inkscape (http://www.inkscape.org/) -->

<svg
   xmlns:dc="http://purl.org/dc/elements/1.1/"
   xmlns:cc="http://creativecommons.org/ns#"
   xmlns:rdf="http://www.w3.org/1999/02/22-rdf-syntax-ns#"
   xmlns:svg="http://www.w3.org/2000/svg"
   xmlns="http://www.w3.org/2000/svg"
   xmlns:sodipodi="http://sodipodi.sourceforge.net/DTD/sodipodi-0.dtd"
   xmlns:inkscape="http://www.inkscape.org/namespaces/inkscape"
   width="1000"
   height="1000"
   id="svg6445"
   version="1.1"
   inkscape:version="0.48.1 r9760"
   sodipodi:docname="providers.svg">
  <defs
     id="defs6447" />
  <sodipodi:namedview
     id="base"
     pagecolor="#ffffff"
     bordercolor="#666666"
     borderopacity="1.0"
     inkscape:pageopacity="0.0"
     inkscape:pageshadow="2"
     inkscape:zoom="0.5"
     inkscape:cx="500"
     inkscape:cy="500.00002"
     inkscape:document-units="px"
     inkscape:current-layer="layer1"
     showgrid="true"
     showguides="true"
     inkscape:guide-bbox="true"
     inkscape:window-width="1372"
     inkscape:window-height="778"
     inkscape:window-x="768"
     inkscape:window-y="292"
     inkscape:window-maximized="0">
    <sodipodi:guide
       orientation="0,1"
       position="0,200"
       id="guide6453" />
    <inkscape:grid
       type="xygrid"
       id="grid7357"
       empspacing="5"
       visible="true"
       enabled="true"
       snapvisiblegridlinesonly="true"
       spacingx="64px"
       spacingy="64px"
       originy="20px"
       originx="20px" />
  </sodipodi:namedview>
  <metadata
     id="metadata6450">
    <rdf:RDF>
      <cc:Work
         rdf:about="">
        <dc:format>image/svg+xml</dc:format>
        <dc:type
           rdf:resource="http://purl.org/dc/dcmitype/StillImage" />
        <dc:title></dc:title>
      </cc:Work>
    </rdf:RDF>
  </metadata>
  <g
     inkscape:label="Layer 1"
     inkscape:groupmode="layer"
     id="layer1"
     transform="translate(0,-52.362183)">
    <path
       inkscape:connector-curvature="0"
       id="path6267"
       d="m 212,200.36218 0,704 576,0 0,-512 c 0,-29.7024 -18.0416,-50.048 -40,-72 l -88,-90.0032 c -21.3952,-21.3952 -36.1344,-29.9968 -64,-29.9968 l -384,0 z m 64,64 256,0 0,192 192,0 0,384 -448,0 0,-576 z m 320,0 128,128 -128,0 0,-128 z m -192,256 c -35.456,0 -64,28.544 -64,64 l 0,64 0,64 c 0,35.456 28.544,64 64,64 l 64,0 0,-64 -64,0 0,-64 0,-64 64,0 0,-64 -64,0 z m 128,0 0,64 64,0 0,64 0,64 -64,0 0,64 64,0 c 35.456,0 64,-28.544 64,-64 l 0,-64 0,-64 c 0,-35.456 -28.544,-64 -64,-64 l -64,0 z" />
  </g>
</svg>
